<svg width="8" height="14" viewBox="0 0 8 14" fill="none" xmlns="http://www.w3.org/2000/svg">
<path d="M7.03475 0.25L1.90587 5.27703L0.86301 6.29918C0.768447 6.39084 0.693397 6.49999 0.642161 6.62029C0.590925 6.74059 0.564575 6.86964 0.564575 7C0.564575 7.13036 0.590925 7.25941 0.642161 7.37971C0.693397 7.50001 0.768447 7.60916 0.86301 7.70082L1.90587 8.72297L7.03475 13.75C7.26609 13.5236 7.44969 13.2547 7.57491 12.9587C7.70013 12.6627 7.76458 12.3455 7.76458 12.025C7.76458 11.7046 7.70013 11.3873 7.57491 11.0914C7.44969 10.7954 7.26609 10.5265 7.03475 10.3001L3.66776 7L7.03475 3.69992C7.26609 3.47352 7.44969 3.20462 7.57491 2.90864C7.70013 2.61265 7.76458 2.29538 7.76458 1.97496C7.76458 1.65454 7.70013 1.33726 7.57491 1.04128C7.44969 0.745292 7.26609 0.476401 7.03475 0.25Z" fill="white"/>
</svg>
